<svg aria-hidden="true" style="position: absolute; width: 0; height: 0; overflow: hidden;" version="1.1" xmlns="http://www.w3.org/2000/svg" xmlns:xlink="http://www.w3.org/1999/xlink">
<defs>
<symbol id="icon-app_store" viewBox="0 0 32 32">
<path fill="#000" style="fill: var(--color1, #000)" d="M24.923 0.593h-18.083c-3.387 0-6.129 2.742-6.129 6.129v18.087c0 3.383 2.742 6.125 6.129 6.125h18.087c3.383 0 6.129-2.742 6.129-6.129v-18.083c-0.004-3.387-2.746-6.129-6.133-6.129z"></path>
<path fill="#fff" style="fill: var(--color2, #fff)" d="M15.753 7.563l0.614-1.062c0.379-0.664 1.225-0.887 1.889-0.508s0.887 1.225 0.508 1.889l-5.92 10.248h4.282c1.388 0 2.166 1.631 1.563 2.761h-12.554c-0.766 0-1.38-0.614-1.38-1.381s0.614-1.381 1.38-1.381h3.52l4.506-7.809-1.407-2.442c-0.379-0.664-0.155-1.502 0.508-1.889 0.664-0.379 1.502-0.155 1.889 0.508l0.603 1.066zM10.428 22.313l-1.327 2.302c-0.379 0.664-1.225 0.887-1.889 0.508s-0.887-1.225-0.508-1.889l0.986-1.707c1.115-0.345 2.021-0.080 2.738 0.785zM25.45 18.137h-3.592c-0.275-0.476-0.539-0.934-0.793-1.373-1.417-2.454-2.508-4.343-3.276-5.662-0.815 0.679-1.642 2.681-0.485 4.676 0.502 0.87 1.116 1.934 1.843 3.192 0.91 1.576 1.997 3.457 3.258 5.645 0.387 0.664 1.225 0.887 1.889 0.508 0.664-0.387 0.887-1.225 0.508-1.889l-1.346-2.336h1.995c0.766 0 1.381-0.614 1.381-1.381s-0.614-1.381-1.381-1.381z"></path>
</symbol>
<symbol id="icon-huawei_app" viewBox="0 0 32 32">
<path fill="#bd1a2f" style="fill: var(--color3, #bd1a2f)" d="M22.727 0.078h-13.458c-6.339 0-8.659 2.319-8.659 8.659v13.458c0 6.339 2.319 8.659 8.659 8.659h13.454c6.339 0 8.662-2.319 8.662-8.659v-13.458c0-6.339-2.319-8.659-8.659-8.659z"></path>
<path fill="#fff" style="fill: var(--color2, #fff)" d="M11.304 17.772c0 0.654-0.324 1.003-0.914 1.003-0.594 0-0.92-0.36-0.92-1.032v-2.274h-0.817v2.3c0 1.132 0.63 1.781 1.726 1.781 1.107 0 1.743-0.662 1.743-1.815v-2.27h-0.815v2.306h-0.002zM6.703 15.468h0.815v4.024h-0.815v-1.635h-1.843v1.635h-0.817v-4.024h0.817v1.623h1.843v-1.623zM19.824 15.468l0.914 2.767 0.891-2.765h0.846l-1.399 4.022h-0.681l-0.914-2.642-0.916 2.642h-0.675l-1.403-4.022h0.869l0.889 2.765 0.914-2.767h0.666zM23.939 17.761h1.485v-0.732h-1.485v-0.823h2.156v-0.734h-2.96v4.018h3.038v-0.734h-2.234v-0.996zM27.952 19.486h-0.806v-4.018h0.806v4.018zM13.733 18.652l-0.366 0.838h-0.834l1.773-4.022h0.721l1.765 4.022h-0.855l-0.362-0.838h-1.841zM15.271 17.928h-1.235l0.616-1.439 0.618 1.439z"></path>
<path fill="#fff" style="fill: var(--color2, #fff)" d="M15.997 10.346c-2.825 0-5.122-2.298-5.122-5.124h0.724c0 2.425 1.974 4.399 4.399 4.399s4.399-1.974 4.399-4.399h0.724c-0.002 2.825-2.3 5.124-5.126 5.124z"></path>
</symbol>
<symbol id="icon-my_account" viewBox="0 0 32 32">
<path d="M23.432 7.645c0 4.222-3.328 7.645-7.432 7.645s-7.432-3.423-7.432-7.645c0-4.222 3.328-7.645 7.432-7.645s7.432 3.423 7.432 7.645zM21.217 7.643c0-2.964-2.336-5.366-5.217-5.366-1.384 0-2.711 0.565-3.689 1.572s-1.528 2.371-1.528 3.795c0 2.964 2.336 5.366 5.217 5.366s5.217-2.403 5.217-5.366z"></path>
<path d="M4.217 31.064c0-6.694 5.276-12.12 11.783-12.12s11.783 5.426 11.783 12.12h2.217c0-7.953-6.268-14.4-14-14.4s-14 6.447-14 14.4h2.217z"></path>
</symbol>
<symbol id="icon-order" viewBox="0 0 32 32">
<path fill="none" stroke="#fff" style="stroke: var(--color2, #fff)" stroke-linejoin="miter" stroke-linecap="butt" stroke-miterlimit="4" stroke-width="2.24" d="M30 19.729c0 0-2.139 0.54-2.379 2.836s-2.393 3.435-2.393 3.435h-19.004c0 0-1.378-0.149-1.915-2.059s-0.092-3.441-2.308-3.62v-0.988h28v0.396z"></path>
<path fill="none" stroke="#fff" style="stroke: var(--color2, #fff)" stroke-linejoin="miter" stroke-linecap="butt" stroke-miterlimit="4" stroke-width="2.24" d="M30 6.396c0 0-2.139 0.54-2.379 2.836s-2.393 3.435-2.393 3.435h-19.004c0 0-1.378-0.149-1.915-2.059s-0.092-3.441-2.308-3.62v-0.988h28v0.396z"></path>
</symbol>
<symbol id="icon-play_app" viewBox="0 0 32 32">
<path fill="#fff" style="fill: var(--color2, #fff)" d="M22.253 0.078h-13.458c-6.339 0-8.658 2.319-8.658 8.659v13.458c0 6.339 2.319 8.659 8.658 8.659h13.454c6.339 0 8.662-2.319 8.662-8.659v-13.458c0-6.339-2.319-8.659-8.659-8.659z"></path>
<path fill="#2196f3" style="fill: var(--color4, #2196f3)" d="M17.375 14.949l-6.443 6.204c-0.302-0.206-0.481-0.549-0.478-0.915v-10.579c-0.003-0.365 0.176-0.708 0.478-0.915l6.443 6.204z"></path>
<path fill="#4caf50" style="fill: var(--color5, #4caf50)" d="M19.629 12.782l-2.254 2.167-6.443-6.204c0.024-0.019 0.050-0.036 0.076-0.052 0.341-0.206 0.766-0.213 1.113-0.017l7.509 4.107z"></path>
<path fill="#ffc107" style="fill: var(--color6, #ffc107)" d="M22.361 14.949c0.004 0.413-0.22 0.794-0.583 0.99l-2.15 1.177-2.254-2.167 2.254-2.167 2.15 1.177c0.363 0.197 0.587 0.578 0.583 0.99z"></path>
<path fill="#f44336" style="fill: var(--color7, #f44336)" d="M19.629 17.117l-7.509 4.107c-0.348 0.192-0.771 0.186-1.113-0.018-0.026-0.016-0.051-0.034-0.076-0.052l6.443-6.204 2.254 2.167z"></path>
</symbol>
<symbol id="icon-shopping_basket" viewBox="0 0 32 32">
<path d="M10.312 20.741h-0.001c-0.516 0.001-0.935 0.426-0.935 0.948s0.421 0.948 0.938 0.948h17c0.518 0 0.937 0.425 0.937 0.948s-0.42 0.948-0.937 0.948h-17c-1.551 0-2.813-1.276-2.813-2.844 0-1.167 0.699-2.172 1.695-2.61l-3.385-15.405h-4.873c-0.518 0-0.938-0.424-0.938-0.948s0.42-0.948 0.938-0.948h5.625c0.439 0 0.82 0.309 0.915 0.742l0.67 3.050h22.915c0.294 0 0.571 0.14 0.748 0.377s0.234 0.545 0.153 0.831l-3.75 13.274c-0.115 0.407-0.483 0.688-0.901 0.688l-17.001 0zM26.605 18.844l3.214-11.378h-21.255l2.5 11.378h15.541z"></path>
<path d="M12.188 30.222c-1.551 0-2.813-1.276-2.813-2.844s1.262-2.844 2.813-2.844c1.551 0 2.813 1.276 2.813 2.844s-1.262 2.844-2.813 2.844zM13.125 27.378c0-0.523-0.421-0.948-0.938-0.948s-0.938 0.425-0.938 0.948c0 0.523 0.421 0.948 0.938 0.948s0.938-0.425 0.938-0.948z"></path>
<path d="M25.438 30.222c-1.551 0-2.812-1.276-2.812-2.844s1.262-2.844 2.812-2.844c1.551 0 2.812 1.276 2.812 2.844s-1.262 2.844-2.812 2.844zM26.375 27.378c0-0.523-0.421-0.948-0.937-0.948s-0.938 0.425-0.938 0.948c0 0.523 0.421 0.948 0.938 0.948s0.937-0.425 0.937-0.948z"></path>
</symbol>
<symbol id="icon-button-close" viewBox="0 0 32 32">
<path d="M32 3.223l-3.223-3.223-12.777 12.777-12.777-12.777-3.223 3.223 12.777 12.777-12.777 12.777 3.223 3.223 12.777-12.777 12.777 12.777 3.223-3.223-12.777-12.777 12.777-12.777z"></path>
</symbol>
<symbol id="icon-menu_burger" viewBox="0 0 48 32">
<path d="M0 5.333v-5.333h48v5.333h-48zM0 18.667h48v-5.333h-48v5.333zM0 32h48v-5.333h-48v5.333z"></path>
</symbol>
<symbol id="icon-Path" viewBox="0 0 58 32">
<path fill="#fff" style="fill: var(--color1, #fff)" d="M28.785 30.269c-15.258 0-27.658-12.411-27.658-27.668h3.912c0 13.097 10.66 23.757 23.757 23.757s23.757-10.66 23.757-23.757h3.912c-0.010 15.258-12.421 27.668-27.679 27.668z"></path>
</symbol>
<symbol id="icon-Shape" viewBox="0 0 168 32">
<path fill="#fff" style="fill: var(--color1, #fff)" d="M52.301 15.962c0 4.416-2.189 6.771-6.17 6.771-4.006 0-6.208-2.432-6.208-6.963v-15.347h-5.517v15.526c0 7.642 4.25 12.019 11.648 12.019 7.475 0 11.763-4.467 11.763-12.25v-15.322h-5.504v15.565h-0.013zM21.248 0.41h5.504v27.162h-5.504v-11.034h-12.442v11.034h-5.517v-27.162h5.517v10.957h12.442v-10.957zM109.812 0.41l6.17 18.675 6.016-18.662h5.709l-9.446 27.149h-4.595l-6.17-17.83-6.182 17.83h-4.557l-9.472-27.149h5.862l6.003 18.662 6.17-18.675h4.493zM137.588 15.885h10.022v-4.941h-10.022v-5.555h14.554v-4.954h-19.981v27.123h20.506v-4.954h-15.078v-6.72zM164.673 27.533h-5.44v-27.123h5.44v27.123zM68.698 21.901l-2.47 5.658h-5.632l11.968-27.149h4.864l11.917 27.149h-5.773l-2.445-5.658h-12.429zM79.079 17.011h-8.333l4.16-9.715 4.173 9.715z"></path>
</symbol>
<symbol id="icon-google-play" viewBox="0 0 30 32">
<path fill="#2196f3" style="fill: var(--color2, #2196f3)" d="M17.056 8.982l-8.698 8.376c-0.407-0.278-0.649-0.741-0.645-1.235v-14.282c-0.004-0.493 0.238-0.956 0.645-1.235l8.698 8.376z"></path>
<path fill="#4caf50" style="fill: var(--color3, #4caf50)" d="M20.099 6.056l-3.044 2.926-8.698-8.376c0.033-0.025 0.067-0.049 0.102-0.071 0.46-0.279 1.034-0.288 1.502-0.024l10.137 5.544z"></path>
<path fill="#ffc107" style="fill: var(--color4, #ffc107)" d="M23.788 8.982c0.006 0.557-0.297 1.071-0.787 1.337l-2.902 1.589-3.043-2.926 3.043-2.926 2.902 1.589c0.49 0.266 0.792 0.78 0.787 1.337z"></path>
<path fill="#f44336" style="fill: var(--color5, #f44336)" d="M20.099 11.907l-10.137 5.544c-0.469 0.26-1.041 0.251-1.502-0.024-0.035-0.022-0.069-0.045-0.102-0.071l8.698-8.376 3.043 2.926z"></path>
</symbol>
<symbol id="icon-apple" viewBox="0 0 35 32">
<path fill="#fff" style="fill: var(--color1, #fff)" d="M17.333 4.853l0.873-1.509c0.539-0.943 1.741-1.261 2.684-0.722s1.261 1.741 0.722 2.684l-8.413 14.562h6.085c1.973 0 3.077 2.317 2.22 3.924h-17.839c-1.089 0-1.962-0.873-1.962-1.962s0.873-1.962 1.962-1.962h5.001l6.403-11.097-1.999-3.471c-0.539-0.943-0.221-2.134 0.722-2.684 0.943-0.539 2.134-0.221 2.684 0.722l0.857 1.514zM9.766 25.813l-1.886 3.271c-0.539 0.943-1.741 1.261-2.684 0.722s-1.261-1.741-0.722-2.684l1.401-2.425c1.585-0.49 2.873-0.113 3.891 1.116zM31.113 19.879h-5.104c-0.391-0.676-0.766-1.327-1.127-1.951-2.014-3.488-3.564-6.172-4.656-8.046-1.159 0.965-2.334 3.81-0.69 6.645 0.713 1.237 1.586 2.748 2.619 4.536 1.294 2.24 2.838 4.913 4.63 8.021 0.55 0.943 1.741 1.261 2.684 0.722 0.943-0.55 1.261-1.741 0.722-2.684l-1.913-3.32h2.835c1.089 0 1.962-0.873 1.962-1.962s-0.873-1.962-1.962-1.962z"></path>
<path fill="#000" style="fill: var(--color6, #000)" d="M18.206 3.344l0.729 0.422 0.002-0.004-0.731-0.418zM17.333 4.853l-0.733 0.415 0.725 1.281 0.737-1.274-0.729-0.422zM20.89 2.622v0zM21.612 5.306l0.729 0.421 0.002-0.003-0.731-0.418zM13.199 19.868l-0.729-0.421-0.73 1.263h1.459v-0.842zM21.504 23.792v0.842h0.505l0.238-0.446-0.743-0.396zM8.666 19.868v0.842h0.486l0.243-0.421-0.729-0.421zM15.069 8.771l0.729 0.421 0.243-0.421-0.242-0.421-0.73 0.42zM13.069 5.301l-0.731 0.418 0.001 0.003 0.73-0.42zM13.792 2.617l-0.418-0.731-0.006 0.004 0.424 0.728zM16.476 3.339l0.733-0.415-0.006-0.009-0.727 0.424zM7.879 29.084l-0.73-0.421-0.002 0.003 0.731 0.418zM9.766 25.813l0.73 0.421 0.293-0.507-0.374-0.451-0.648 0.537zM5.195 29.806v0zM4.473 27.123l-0.729-0.421-0.002 0.004 0.731 0.418zM5.874 24.697l-0.249-0.805-0.315 0.098-0.165 0.286 0.729 0.421zM26.010 19.879l-0.729 0.421 0.243 0.421h0.486v-0.842zM24.883 17.928v0zM20.227 9.882l0.727-0.424-0.501-0.86-0.765 0.637 0.539 0.647zM19.537 16.527l0.73-0.421-0.001-0.002-0.728 0.422zM22.155 21.063v0zM26.786 29.084l-0.73 0.421 0.002 0.003 0.728-0.424zM29.47 29.806l0.418 0.731 0.006-0.004-0.424-0.728zM30.192 27.123l0.731-0.418-0.002-0.003-0.73 0.421zM28.279 23.803v-0.842h-1.457l0.728 1.263 0.73-0.421zM17.477 2.922l-0.873 1.509 1.458 0.843 0.873-1.509-1.458-0.843zM21.307 1.891c-1.34-0.766-3.060-0.318-3.833 1.036l1.462 0.836c0.305-0.533 0.989-0.721 1.535-0.409l0.836-1.462zM22.343 5.724c0.766-1.34 0.318-3.060-1.036-3.833l-0.836 1.462c0.533 0.305 0.721 0.989 0.409 1.535l1.462 0.836zM13.928 20.29l8.413-14.562-1.458-0.843-8.413 14.562 1.458 0.842zM19.284 19.026h-6.085v1.684h6.085v-1.684zM22.247 24.188c0.579-1.085 0.479-2.365-0.049-3.356-0.535-1.004-1.564-1.806-2.914-1.806v1.684c0.622 0 1.132 0.357 1.428 0.913 0.303 0.569 0.327 1.251 0.049 1.772l1.486 0.793zM3.665 24.634h17.839v-1.684h-17.839v1.684zM0.861 21.83c0 1.554 1.25 2.804 2.804 2.804v-1.684c-0.624 0-1.12-0.496-1.12-1.12h-1.684zM3.665 19.026c-1.554 0-2.804 1.25-2.804 2.804h1.684c0-0.624 0.496-1.12 1.12-1.12v-1.684zM8.666 19.026h-5.001v1.684h5.001v-1.684zM14.34 8.351l-6.403 11.097 1.459 0.842 6.403-11.097-1.459-0.842zM12.34 5.721l1.999 3.471 1.459-0.841-1.999-3.471-1.459 0.841zM13.368 1.889c-1.342 0.782-1.798 2.484-1.029 3.829l1.462-0.836c-0.309-0.541-0.129-1.221 0.415-1.539l-0.848-1.455zM17.203 2.915c-0.782-1.342-2.484-1.798-3.829-1.029l0.836 1.462c0.541-0.309 1.221-0.129 1.539 0.415l1.455-0.848zM18.065 4.439l-0.857-1.514-1.466 0.829 0.857 1.514 1.466-0.829zM8.609 29.505l1.886-3.271-1.459-0.841-1.886 3.271 1.459 0.841zM4.778 30.538c1.34 0.766 3.060 0.318 3.833-1.035l-1.462-0.836c-0.304 0.533-0.989 0.721-1.535 0.409l-0.836 1.462zM3.742 26.705c-0.766 1.34-0.318 3.060 1.036 3.833l0.836-1.462c-0.533-0.305-0.721-0.989-0.409-1.535l-1.462-0.836zM5.145 24.276l-1.401 2.425 1.458 0.842 1.401-2.425-1.458-0.842zM10.414 25.275c-0.596-0.719-1.309-1.232-2.148-1.474-0.838-0.242-1.727-0.191-2.64 0.091l0.498 1.609c0.671-0.208 1.218-0.214 1.676-0.082 0.455 0.131 0.896 0.421 1.318 0.931l1.297-1.075zM26.010 20.721h5.104v-1.684h-5.104v1.684zM24.153 18.349c0.361 0.625 0.736 1.275 1.127 1.951l1.459-0.842c-0.391-0.676-0.766-1.327-1.127-1.951l-1.459 0.842zM19.499 10.306c1.091 1.872 2.64 4.554 4.654 8.043l1.459-0.842c-2.013-3.487-3.564-6.173-4.658-8.049l-1.455 0.848zM20.265 16.104c-1.424-2.457-0.364-4.856 0.5-5.576l-1.078-1.294c-1.453 1.21-2.743 4.502-0.88 7.715l1.457-0.845zM22.885 20.642c-1.033-1.788-1.906-3.299-2.618-4.536l-1.459 0.841c0.713 1.237 1.587 2.749 2.619 4.537l1.458-0.842zM27.515 28.664c-1.793-3.108-3.337-5.782-4.63-8.022l-1.458 0.842c1.294 2.24 2.838 4.913 4.63 8.021l1.459-0.841zM29.052 29.075c-0.541 0.309-1.221 0.129-1.539-0.415l-1.455 0.848c0.782 1.342 2.484 1.798 3.829 1.029l-0.836-1.462zM29.461 27.54c0.309 0.541 0.129 1.221-0.415 1.539l0.848 1.455c1.342-0.782 1.798-2.484 1.029-3.829l-1.462 0.836zM27.549 24.223l1.913 3.32 1.459-0.841-1.913-3.32-1.459 0.841zM31.113 22.96h-2.835v1.684h2.835v-1.684zM32.233 21.841c0 0.623-0.496 1.12-1.12 1.12v1.684c1.554 0 2.804-1.25 2.804-2.804h-1.684zM31.113 20.721c0.623 0 1.12 0.496 1.12 1.12h1.684c0-1.554-1.25-2.804-2.804-2.804v1.684z"></path>
</symbol>
</defs>
</svg>
